<?xml version="1.0" encoding="UTF-8"?>
<svg id="Layer_1" data-name="Layer 1" xmlns="http://www.w3.org/2000/svg" viewBox="0 0 512 512">
  <defs>
    <style>
      .cls-1 {
        fill: #031760;
      }

      .cls-2 {
        fill: #31a7ff;
      }
    </style>
  </defs>
  <rect class="cls-2" x="0" width="512" height="512" rx="160" ry="160"/>
  <g>
    <polygon class="cls-1" points="207.49 297.52 179.4 297.52 136.55 371.66 95.19 371.66 81 395.92 196.62 395.92 210.83 371.66 164.64 371.66 207.49 297.52"/>
    <path class="cls-1" d="m424.62,169.66h0c-3.09-7.59-7.26-14.73-12.34-21.19-5.11-6.44-11.12-12.17-17.95-16.98-3.4-2.39-7.02-4.56-10.82-6.44h0c-3.81-1.92-7.78-3.53-11.92-4.87l-.37-.12c-5.79-1.83-11.9-3.06-18.24-3.62h-.03c-2.59-.22-5.21-.36-7.83-.36h-100.82l-14.2,24.26h41.93l-66.5,113.14h28.09l66.5-113.14h45.01c9.09-.01,17.38,1.85,24.8,5.09,5.57,2.43,10.65,5.67,15.14,9.55l.12.11.11.09c6.64,5.78,12.01,12.95,15.7,20.92,3.73,8.06,5.77,16.88,5.77,25.88,0,5.14-.67,10.36-2.06,15.54-1.38,5.12-3.47,10.18-6.35,15.17l-.08.13-.07.13c-5.53,9.42-13.32,17.02-22.5,22.27-9.17,5.25-19.67,8.15-30.59,8.13h-210.32l30.08-51.34h52.34s14.38-24.55,14.38-24.55h-80.43l-5.55,9.51-53.1,90.64h252.47c.08-.01.2-.01.4-.01,15.14-.04,29.71-4.07,42.4-11.36,12.76-7.31,23.66-17.92,31.35-31.06l.41-.69.17-.29.03-.04.03-.12.32-.57c3.57-6.4,6.24-12.99,8.03-19.65,1.96-7.27,2.9-14.62,2.9-21.85,0-11.24-2.25-22.21-6.38-32.32Z"/>
  </g>
</svg>